<svg xmlns="http://www.w3.org/2000/svg" xmlns:xlink="http://www.w3.org/1999/xlink" width="2687" zoomAndPan="magnify" viewBox="0 0 2015.25 379.499984" height="506" preserveAspectRatio="xMidYMid meet" version="1.0"><defs><g/><clipPath id="c4f3ff3d20"><rect x="0" width="834" y="0" height="244"/></clipPath><clipPath id="1e508584cb"><rect x="0" width="1024" y="0" height="84"/></clipPath><clipPath id="70ff3b08c1"><rect x="0" width="1033" y="0" height="244"/></clipPath></defs><g transform="matrix(1, 0, 0, 1, 70, 64)"><g clip-path="url(#c4f3ff3d20)"><g fill="#ffffff" fill-opacity="1"><g transform="translate(0.900068, 181.131077)"><g><path d="M 51.6875 -33.046875 L 99.140625 -33.046875 L 99.140625 0 L 13.671875 0 L 13.671875 -149.078125 L 51.6875 -149.078125 Z M 51.6875 -33.046875 "/></g></g></g><g fill="#ffffff" fill-opacity="1"><g transform="translate(94.082177, 181.131077)"><g><path d="M 62.375 -101.625 C 78.9375 -101.625 92.101562 -96.984375 101.875 -87.703125 C 111.644531 -78.429688 116.445312 -65.84375 116.28125 -49.9375 L 116.28125 -43.734375 L 43.734375 -43.734375 C 44.234375 -37.273438 45.929688 -32.347656 48.828125 -28.953125 C 51.722656 -25.554688 56.484375 -23.859375 63.109375 -23.859375 C 72.554688 -23.859375 78.191406 -27.253906 80.015625 -34.046875 L 115.046875 -34.046875 C 112.890625 -23.273438 107.378906 -14.578125 98.515625 -7.953125 C 89.660156 -1.328125 77.941406 1.984375 63.359375 1.984375 C 46.128906 1.984375 32.378906 -2.648438 22.109375 -11.921875 C 11.835938 -21.203125 6.703125 -33.789062 6.703125 -49.6875 C 6.703125 -60.457031 9.019531 -69.691406 13.65625 -77.390625 C 18.300781 -85.097656 24.804688 -91.0625 33.171875 -95.28125 C 41.535156 -99.507812 51.269531 -101.625 62.375 -101.625 Z M 63.109375 -74.546875 C 58.304688 -74.546875 54.535156 -73.632812 51.796875 -71.8125 C 49.066406 -69.988281 47.039062 -67.421875 45.71875 -64.109375 L 79.265625 -64.109375 C 78.109375 -67.421875 76.242188 -69.988281 73.671875 -71.8125 C 71.109375 -73.632812 67.585938 -74.546875 63.109375 -74.546875 Z M 63.109375 -74.546875 "/></g></g></g><g fill="#ffffff" fill-opacity="1"><g transform="translate(211.118881, 181.131077)"><g><path d="M 72.796875 -99.390625 L 112.3125 -99.390625 L 72.0625 0 L 37.515625 0 L -2.234375 -99.390625 L 37.015625 -99.390625 L 54.90625 -40 Z M 72.796875 -99.390625 "/></g></g></g><g fill="#ffffff" fill-opacity="1"><g transform="translate(315.234323, 181.131077)"><g><path d="M 62.375 -101.625 C 78.9375 -101.625 92.101562 -96.984375 101.875 -87.703125 C 111.644531 -78.429688 116.445312 -65.84375 116.28125 -49.9375 L 116.28125 -43.734375 L 43.734375 -43.734375 C 44.234375 -37.273438 45.929688 -32.347656 48.828125 -28.953125 C 51.722656 -25.554688 56.484375 -23.859375 63.109375 -23.859375 C 72.554688 -23.859375 78.191406 -27.253906 80.015625 -34.046875 L 115.046875 -34.046875 C 112.890625 -23.273438 107.378906 -14.578125 98.515625 -7.953125 C 89.660156 -1.328125 77.941406 1.984375 63.359375 1.984375 C 46.128906 1.984375 32.378906 -2.648438 22.109375 -11.921875 C 11.835938 -21.203125 6.703125 -33.789062 6.703125 -49.6875 C 6.703125 -60.457031 9.019531 -69.691406 13.65625 -77.390625 C 18.300781 -85.097656 24.804688 -91.0625 33.171875 -95.28125 C 41.535156 -99.507812 51.269531 -101.625 62.375 -101.625 Z M 63.109375 -74.546875 C 58.304688 -74.546875 54.535156 -73.632812 51.796875 -71.8125 C 49.066406 -69.988281 47.039062 -67.421875 45.71875 -64.109375 L 79.265625 -64.109375 C 78.109375 -67.421875 76.242188 -69.988281 73.671875 -71.8125 C 71.109375 -73.632812 67.585938 -74.546875 63.109375 -74.546875 Z M 63.109375 -74.546875 "/></g></g></g><g fill="#ffffff" fill-opacity="1"><g transform="translate(432.271027, 181.131077)"><g><path d="M 13.671875 0 L 13.671875 -166.234375 L 50.4375 -166.234375 L 50.4375 0 Z M 13.671875 0 "/></g></g></g><g fill="#ffffff" fill-opacity="1"><g transform="translate(490.416667, 181.131077)"><g><path d="M 76.78125 1.984375 C 64.851562 1.984375 54.039062 -0.207031 44.34375 -4.59375 C 34.65625 -8.988281 26.992188 -14.910156 21.359375 -22.359375 C 15.734375 -29.816406 12.921875 -38.179688 12.921875 -47.453125 L 12.921875 -149.078125 L 50.9375 -149.078125 L 50.9375 -54.671875 C 50.9375 -48.035156 53.460938 -42.441406 58.515625 -37.890625 C 63.566406 -33.335938 69.65625 -31.0625 76.78125 -31.0625 C 84.070312 -31.0625 90.203125 -33.335938 95.171875 -37.890625 C 100.140625 -42.441406 102.625 -48.035156 102.625 -54.671875 L 102.625 -149.078125 L 140.640625 -149.078125 L 140.640625 -47.453125 C 140.640625 -38.179688 137.820312 -29.816406 132.1875 -22.359375 C 126.550781 -14.910156 118.890625 -8.988281 109.203125 -4.59375 C 99.515625 -0.207031 88.707031 1.984375 76.78125 1.984375 Z M 76.78125 1.984375 "/></g></g></g><g fill="#ffffff" fill-opacity="1"><g transform="translate(638.016997, 181.131077)"><g><path d="M 76.53125 -101.375 C 85.476562 -101.375 93.59375 -99.097656 100.875 -94.546875 C 108.164062 -89.992188 113.921875 -83.820312 118.140625 -76.03125 C 122.367188 -68.25 124.484375 -59.46875 124.484375 -49.6875 C 124.484375 -40.082031 122.367188 -31.34375 118.140625 -23.46875 C 113.921875 -15.601562 108.164062 -9.394531 100.875 -4.84375 C 93.59375 -0.289062 85.476562 1.984375 76.53125 1.984375 C 71.394531 1.984375 66.585938 1.15625 62.109375 -0.5 C 57.640625 -2.15625 53.75 -4.390625 50.4375 -7.203125 L 50.4375 59.890625 L 13.671875 59.640625 L 13.671875 -99.390625 L 50.4375 -99.140625 L 50.4375 -92.1875 C 53.75 -95 57.640625 -97.234375 62.109375 -98.890625 C 66.585938 -100.546875 71.394531 -101.375 76.53125 -101.375 Z M 68.078125 -30.0625 C 73.710938 -30.0625 78.394531 -31.925781 82.125 -35.65625 C 85.851562 -39.382812 87.71875 -44.0625 87.71875 -49.6875 C 87.71875 -55.320312 85.851562 -60.003906 82.125 -63.734375 C 78.394531 -67.460938 73.710938 -69.328125 68.078125 -69.328125 C 62.617188 -69.328125 57.984375 -67.460938 54.171875 -63.734375 C 50.359375 -60.003906 48.453125 -55.320312 48.453125 -49.6875 C 48.453125 -44.0625 50.359375 -39.382812 54.171875 -35.65625 C 57.984375 -31.925781 62.617188 -30.0625 68.078125 -30.0625 Z M 68.078125 -30.0625 "/></g></g></g><g fill="#ffffff" fill-opacity="1"><g transform="translate(763.502125, 181.131077)"><g><path d="M 37.015625 1.984375 C 31.878906 1.984375 27.363281 0.0390625 23.46875 -3.84375 C 19.582031 -7.738281 17.640625 -12.253906 17.640625 -17.390625 C 17.640625 -22.691406 19.582031 -27.25 23.46875 -31.0625 C 27.363281 -34.875 31.878906 -36.78125 37.015625 -36.78125 C 42.316406 -36.78125 46.914062 -34.875 50.8125 -31.0625 C 54.707031 -27.25 56.65625 -22.691406 56.65625 -17.390625 C 56.65625 -12.253906 54.707031 -7.738281 50.8125 -3.84375 C 46.914062 0.0390625 42.316406 1.984375 37.015625 1.984375 Z M 37.015625 1.984375 "/></g></g></g></g></g><g transform="matrix(1, 0, 0, 1, 919, 265)"><g clip-path="url(#1e508584cb)"><g fill="#ffffff" fill-opacity="1"><g transform="translate(0.352302, 62.817009)"><g><path d="M 4.34375 0 L 4.34375 -44.640625 L 20.84375 -44.640625 C 24.414062 -44.640625 27.367188 -44.039062 29.703125 -42.84375 C 32.046875 -41.65625 33.789062 -40.019531 34.9375 -37.9375 C 36.09375 -35.851562 36.671875 -33.515625 36.671875 -30.921875 C 36.671875 -28.460938 36.113281 -26.203125 35 -24.140625 C 33.894531 -22.078125 32.171875 -20.414062 29.828125 -19.15625 C 27.492188 -17.90625 24.5 -17.28125 20.84375 -17.28125 L 12.5 -17.28125 L 12.5 0 Z M 12.5 -23.90625 L 20.34375 -23.90625 C 23.1875 -23.90625 25.234375 -24.53125 26.484375 -25.78125 C 27.742188 -27.039062 28.375 -28.753906 28.375 -30.921875 C 28.375 -33.128906 27.742188 -34.859375 26.484375 -36.109375 C 25.234375 -37.367188 23.1875 -38 20.34375 -38 L 12.5 -38 Z M 12.5 -23.90625 "/></g></g></g><g fill="#ffffff" fill-opacity="1"><g transform="translate(48.617063, 62.817009)"><g><path d="M 4.34375 0 L 4.34375 -44.640625 L 20.71875 -44.640625 C 24.289062 -44.640625 27.234375 -44.03125 29.546875 -42.8125 C 31.867188 -41.601562 33.601562 -39.96875 34.75 -37.90625 C 35.894531 -35.84375 36.46875 -33.554688 36.46875 -31.046875 C 36.46875 -28.328125 35.753906 -25.84375 34.328125 -23.59375 C 32.910156 -21.34375 30.691406 -19.707031 27.671875 -18.6875 L 36.921875 0 L 27.546875 0 L 19.25 -17.59375 L 12.5 -17.59375 L 12.5 0 Z M 12.5 -23.59375 L 20.21875 -23.59375 C 22.9375 -23.59375 24.929688 -24.25 26.203125 -25.5625 C 27.484375 -26.882812 28.125 -28.628906 28.125 -30.796875 C 28.125 -32.921875 27.492188 -34.617188 26.234375 -35.890625 C 24.984375 -37.171875 22.957031 -37.8125 20.15625 -37.8125 L 12.5 -37.8125 Z M 12.5 -23.59375 "/></g></g></g><g fill="#ffffff" fill-opacity="1"><g transform="translate(97.901898, 62.817009)"><g><path d="M 1.46875 0 L 17.796875 -44.640625 L 26.96875 -44.640625 L 43.296875 0 L 34.625 0 L 31.046875 -10.328125 L 13.640625 -10.328125 L 10.015625 0 Z M 15.875 -16.703125 L 28.828125 -16.703125 L 22.3125 -35.265625 Z M 15.875 -16.703125 "/></g></g></g><g fill="#ffffff" fill-opacity="1"><g transform="translate(152.159637, 62.817009)"><g><path d="M 24.546875 0.765625 C 20.046875 0.765625 16.175781 -0.195312 12.9375 -2.125 C 9.707031 -4.0625 7.222656 -6.765625 5.484375 -10.234375 C 3.742188 -13.703125 2.875 -17.707031 2.875 -22.25 C 2.875 -26.800781 3.742188 -30.816406 5.484375 -34.296875 C 7.222656 -37.785156 9.707031 -40.507812 12.9375 -42.46875 C 16.175781 -44.425781 20.046875 -45.40625 24.546875 -45.40625 C 29.898438 -45.40625 34.285156 -44.078125 37.703125 -41.421875 C 41.128906 -38.765625 43.269531 -35.03125 44.125 -30.21875 L 35.140625 -30.21875 C 34.585938 -32.644531 33.40625 -34.546875 31.59375 -35.921875 C 29.789062 -37.304688 27.398438 -38 24.421875 -38 C 20.296875 -38 17.0625 -36.597656 14.71875 -33.796875 C 12.382812 -30.992188 11.21875 -27.144531 11.21875 -22.25 C 11.21875 -17.363281 12.382812 -13.523438 14.71875 -10.734375 C 17.0625 -7.953125 20.296875 -6.5625 24.421875 -6.5625 C 27.398438 -6.5625 29.789062 -7.207031 31.59375 -8.5 C 33.40625 -9.800781 34.585938 -11.601562 35.140625 -13.90625 L 44.125 -13.90625 C 43.269531 -9.3125 41.128906 -5.71875 37.703125 -3.125 C 34.285156 -0.53125 29.898438 0.765625 24.546875 0.765625 Z M 24.546875 0.765625 "/></g></g></g><g fill="#ffffff" fill-opacity="1"><g transform="translate(208.712555, 62.817009)"><g><path d="M 14.734375 0 L 14.734375 -38.0625 L 1.71875 -38.0625 L 1.71875 -44.640625 L 35.96875 -44.640625 L 35.96875 -38.0625 L 22.890625 -38.0625 L 22.890625 0 Z M 14.734375 0 "/></g></g></g><g fill="#ffffff" fill-opacity="1"><g transform="translate(255.957231, 62.817009)"><g><path d="M 4.34375 0 L 4.34375 -44.640625 L 12.5 -44.640625 L 12.5 0 Z M 4.34375 0 "/></g></g></g><g fill="#ffffff" fill-opacity="1"><g transform="translate(282.353963, 62.817009)"><g><path d="M 24.546875 0.765625 C 20.046875 0.765625 16.175781 -0.195312 12.9375 -2.125 C 9.707031 -4.0625 7.222656 -6.765625 5.484375 -10.234375 C 3.742188 -13.703125 2.875 -17.707031 2.875 -22.25 C 2.875 -26.800781 3.742188 -30.816406 5.484375 -34.296875 C 7.222656 -37.785156 9.707031 -40.507812 12.9375 -42.46875 C 16.175781 -44.425781 20.046875 -45.40625 24.546875 -45.40625 C 29.898438 -45.40625 34.285156 -44.078125 37.703125 -41.421875 C 41.128906 -38.765625 43.269531 -35.03125 44.125 -30.21875 L 35.140625 -30.21875 C 34.585938 -32.644531 33.40625 -34.546875 31.59375 -35.921875 C 29.789062 -37.304688 27.398438 -38 24.421875 -38 C 20.296875 -38 17.0625 -36.597656 14.71875 -33.796875 C 12.382812 -30.992188 11.21875 -27.144531 11.21875 -22.25 C 11.21875 -17.363281 12.382812 -13.523438 14.71875 -10.734375 C 17.0625 -7.953125 20.296875 -6.5625 24.421875 -6.5625 C 27.398438 -6.5625 29.789062 -7.207031 31.59375 -8.5 C 33.40625 -9.800781 34.585938 -11.601562 35.140625 -13.90625 L 44.125 -13.90625 C 43.269531 -9.3125 41.128906 -5.71875 37.703125 -3.125 C 34.285156 -0.53125 29.898438 0.765625 24.546875 0.765625 Z M 24.546875 0.765625 "/></g></g></g><g fill="#ffffff" fill-opacity="1"><g transform="translate(338.906893, 62.817009)"><g><path d="M 4.34375 0 L 4.34375 -44.640625 L 33.484375 -44.640625 L 33.484375 -38.0625 L 12.5 -38.0625 L 12.5 -25.828125 L 31.5625 -25.828125 L 31.5625 -19.453125 L 12.5 -19.453125 L 12.5 -6.5625 L 33.484375 -6.5625 L 33.484375 0 Z M 4.34375 0 "/></g></g></g><g fill="#ffffff" fill-opacity="1"><g transform="translate(385.32275, 62.817009)"><g/></g></g><g fill="#ffffff" fill-opacity="1"><g transform="translate(410.061845, 62.817009)"><g><path d="M 14.734375 0 L 14.734375 -38.0625 L 1.71875 -38.0625 L 1.71875 -44.640625 L 35.96875 -44.640625 L 35.96875 -38.0625 L 22.890625 -38.0625 L 22.890625 0 Z M 14.734375 0 "/></g></g></g><g fill="#ffffff" fill-opacity="1"><g transform="translate(457.306546, 62.817009)"><g><path d="M 25.25 0.765625 C 20.789062 0.765625 16.890625 -0.207031 13.546875 -2.15625 C 10.210938 -4.113281 7.597656 -6.828125 5.703125 -10.296875 C 3.816406 -13.765625 2.875 -17.769531 2.875 -22.3125 C 2.875 -26.863281 3.816406 -30.867188 5.703125 -34.328125 C 7.597656 -37.796875 10.210938 -40.507812 13.546875 -42.46875 C 16.890625 -44.425781 20.789062 -45.40625 25.25 -45.40625 C 29.664062 -45.40625 33.550781 -44.425781 36.90625 -42.46875 C 40.269531 -40.507812 42.882812 -37.796875 44.75 -34.328125 C 46.625 -30.867188 47.5625 -26.863281 47.5625 -22.3125 C 47.5625 -17.769531 46.625 -13.765625 44.75 -10.296875 C 42.882812 -6.828125 40.269531 -4.113281 36.90625 -2.15625 C 33.550781 -0.207031 29.664062 0.765625 25.25 0.765625 Z M 25.25 -6.5625 C 29.5 -6.5625 32.890625 -7.960938 35.421875 -10.765625 C 37.953125 -13.578125 39.21875 -17.425781 39.21875 -22.3125 C 39.21875 -27.207031 37.953125 -31.054688 35.421875 -33.859375 C 32.890625 -36.660156 29.5 -38.0625 25.25 -38.0625 C 21 -38.0625 17.597656 -36.660156 15.046875 -33.859375 C 12.492188 -31.054688 11.21875 -27.207031 11.21875 -22.3125 C 11.21875 -17.425781 12.492188 -13.578125 15.046875 -10.765625 C 17.597656 -7.960938 21 -6.5625 25.25 -6.5625 Z M 25.25 -6.5625 "/></g></g></g><g fill="#ffffff" fill-opacity="1"><g transform="translate(517.302264, 62.817009)"><g/></g></g><g fill="#ffffff" fill-opacity="1"><g transform="translate(542.041358, 62.817009)"><g><path d="M 4.34375 0 L 4.34375 -44.640625 L 20.84375 -44.640625 C 24.414062 -44.640625 27.367188 -44.039062 29.703125 -42.84375 C 32.046875 -41.65625 33.789062 -40.019531 34.9375 -37.9375 C 36.09375 -35.851562 36.671875 -33.515625 36.671875 -30.921875 C 36.671875 -28.460938 36.113281 -26.203125 35 -24.140625 C 33.894531 -22.078125 32.171875 -20.414062 29.828125 -19.15625 C 27.492188 -17.90625 24.5 -17.28125 20.84375 -17.28125 L 12.5 -17.28125 L 12.5 0 Z M 12.5 -23.90625 L 20.34375 -23.90625 C 23.1875 -23.90625 25.234375 -24.53125 26.484375 -25.78125 C 27.742188 -27.039062 28.375 -28.753906 28.375 -30.921875 C 28.375 -33.128906 27.742188 -34.859375 26.484375 -36.109375 C 25.234375 -37.367188 23.1875 -38 20.34375 -38 L 12.5 -38 Z M 12.5 -23.90625 "/></g></g></g><g fill="#ffffff" fill-opacity="1"><g transform="translate(590.306095, 62.817009)"><g><path d="M 4.34375 0 L 4.34375 -44.640625 L 33.484375 -44.640625 L 33.484375 -38.0625 L 12.5 -38.0625 L 12.5 -25.828125 L 31.5625 -25.828125 L 31.5625 -19.453125 L 12.5 -19.453125 L 12.5 -6.5625 L 33.484375 -6.5625 L 33.484375 0 Z M 4.34375 0 "/></g></g></g><g fill="#ffffff" fill-opacity="1"><g transform="translate(636.721952, 62.817009)"><g><path d="M 4.34375 0 L 4.34375 -44.640625 L 20.71875 -44.640625 C 24.289062 -44.640625 27.234375 -44.03125 29.546875 -42.8125 C 31.867188 -41.601562 33.601562 -39.96875 34.75 -37.90625 C 35.894531 -35.84375 36.46875 -33.554688 36.46875 -31.046875 C 36.46875 -28.328125 35.753906 -25.84375 34.328125 -23.59375 C 32.910156 -21.34375 30.691406 -19.707031 27.671875 -18.6875 L 36.921875 0 L 27.546875 0 L 19.25 -17.59375 L 12.5 -17.59375 L 12.5 0 Z M 12.5 -23.59375 L 20.21875 -23.59375 C 22.9375 -23.59375 24.929688 -24.25 26.203125 -25.5625 C 27.484375 -26.882812 28.125 -28.628906 28.125 -30.796875 C 28.125 -32.921875 27.492188 -34.617188 26.234375 -35.890625 C 24.984375 -37.171875 22.957031 -37.8125 20.15625 -37.8125 L 12.5 -37.8125 Z M 12.5 -23.59375 "/></g></g></g><g fill="#ffffff" fill-opacity="1"><g transform="translate(686.006824, 62.817009)"><g><path d="M 4.34375 0 L 4.34375 -44.640625 L 33.15625 -44.640625 L 33.15625 -38.0625 L 12.5 -38.0625 L 12.5 -25.5625 L 29.203125 -25.5625 L 29.203125 -19.125 L 12.5 -19.125 L 12.5 0 Z M 4.34375 0 "/></g></g></g><g fill="#ffffff" fill-opacity="1"><g transform="translate(730.701263, 62.817009)"><g><path d="M 4.34375 0 L 4.34375 -44.640625 L 33.484375 -44.640625 L 33.484375 -38.0625 L 12.5 -38.0625 L 12.5 -25.828125 L 31.5625 -25.828125 L 31.5625 -19.453125 L 12.5 -19.453125 L 12.5 -6.5625 L 33.484375 -6.5625 L 33.484375 0 Z M 4.34375 0 "/></g></g></g><g fill="#ffffff" fill-opacity="1"><g transform="translate(777.11712, 62.817009)"><g><path d="M 24.546875 0.765625 C 20.046875 0.765625 16.175781 -0.195312 12.9375 -2.125 C 9.707031 -4.0625 7.222656 -6.765625 5.484375 -10.234375 C 3.742188 -13.703125 2.875 -17.707031 2.875 -22.25 C 2.875 -26.800781 3.742188 -30.816406 5.484375 -34.296875 C 7.222656 -37.785156 9.707031 -40.507812 12.9375 -42.46875 C 16.175781 -44.425781 20.046875 -45.40625 24.546875 -45.40625 C 29.898438 -45.40625 34.285156 -44.078125 37.703125 -41.421875 C 41.128906 -38.765625 43.269531 -35.03125 44.125 -30.21875 L 35.140625 -30.21875 C 34.585938 -32.644531 33.40625 -34.546875 31.59375 -35.921875 C 29.789062 -37.304688 27.398438 -38 24.421875 -38 C 20.296875 -38 17.0625 -36.597656 14.71875 -33.796875 C 12.382812 -30.992188 11.21875 -27.144531 11.21875 -22.25 C 11.21875 -17.363281 12.382812 -13.523438 14.71875 -10.734375 C 17.0625 -7.953125 20.296875 -6.5625 24.421875 -6.5625 C 27.398438 -6.5625 29.789062 -7.207031 31.59375 -8.5 C 33.40625 -9.800781 34.585938 -11.601562 35.140625 -13.90625 L 44.125 -13.90625 C 43.269531 -9.3125 41.128906 -5.71875 37.703125 -3.125 C 34.285156 -0.53125 29.898438 0.765625 24.546875 0.765625 Z M 24.546875 0.765625 "/></g></g></g><g fill="#ffffff" fill-opacity="1"><g transform="translate(833.670001, 62.817009)"><g><path d="M 14.734375 0 L 14.734375 -38.0625 L 1.71875 -38.0625 L 1.71875 -44.640625 L 35.96875 -44.640625 L 35.96875 -38.0625 L 22.890625 -38.0625 L 22.890625 0 Z M 14.734375 0 "/></g></g></g><g fill="#ffffff" fill-opacity="1"><g transform="translate(880.914751, 62.817009)"><g><path d="M 4.34375 0 L 4.34375 -44.640625 L 12.5 -44.640625 L 12.5 0 Z M 4.34375 0 "/></g></g></g><g fill="#ffffff" fill-opacity="1"><g transform="translate(907.311483, 62.817009)"><g><path d="M 25.25 0.765625 C 20.789062 0.765625 16.890625 -0.207031 13.546875 -2.15625 C 10.210938 -4.113281 7.597656 -6.828125 5.703125 -10.296875 C 3.816406 -13.765625 2.875 -17.769531 2.875 -22.3125 C 2.875 -26.863281 3.816406 -30.867188 5.703125 -34.328125 C 7.597656 -37.796875 10.210938 -40.507812 13.546875 -42.46875 C 16.890625 -44.425781 20.789062 -45.40625 25.25 -45.40625 C 29.664062 -45.40625 33.550781 -44.425781 36.90625 -42.46875 C 40.269531 -40.507812 42.882812 -37.796875 44.75 -34.328125 C 46.625 -30.867188 47.5625 -26.863281 47.5625 -22.3125 C 47.5625 -17.769531 46.625 -13.765625 44.75 -10.296875 C 42.882812 -6.828125 40.269531 -4.113281 36.90625 -2.15625 C 33.550781 -0.207031 29.664062 0.765625 25.25 0.765625 Z M 25.25 -6.5625 C 29.5 -6.5625 32.890625 -7.960938 35.421875 -10.765625 C 37.953125 -13.578125 39.21875 -17.425781 39.21875 -22.3125 C 39.21875 -27.207031 37.953125 -31.054688 35.421875 -33.859375 C 32.890625 -36.660156 29.5 -38.0625 25.25 -38.0625 C 21 -38.0625 17.597656 -36.660156 15.046875 -33.859375 C 12.492188 -31.054688 11.21875 -27.207031 11.21875 -22.3125 C 11.21875 -17.425781 12.492188 -13.578125 15.046875 -10.765625 C 17.597656 -7.960938 21 -6.5625 25.25 -6.5625 Z M 25.25 -6.5625 "/></g></g></g><g fill="#ffffff" fill-opacity="1"><g transform="translate(967.307202, 62.817009)"><g><path d="M 4.34375 0 L 4.34375 -44.640625 L 12.5 -44.640625 L 33.484375 -13.203125 L 33.484375 -44.640625 L 41.640625 -44.640625 L 41.640625 0 L 33.484375 0 L 12.5 -31.375 L 12.5 0 Z M 4.34375 0 "/></g></g></g></g></g><g transform="matrix(1, 0, 0, 1, 907, 64)"><g clip-path="url(#70ff3b08c1)"><g fill="#f9c111" fill-opacity="1"><g transform="translate(0.676885, 181.131077)"><g><path d="M 107.34375 -116.03125 L 52.921875 -116.03125 L 52.921875 -90.9375 L 98.890625 -90.9375 L 98.890625 -58.140625 L 52.921875 -58.140625 L 52.921875 0 L 14.90625 0 L 14.90625 -149.078125 L 107.34375 -149.078125 Z M 107.34375 -116.03125 "/></g></g></g><g fill="#f9c111" fill-opacity="1"><g transform="translate(103.798362, 181.131077)"><g><path d="M 13.671875 0 L 13.671875 -166.234375 L 50.4375 -166.234375 L 50.4375 0 Z M 13.671875 0 "/></g></g></g><g fill="#f9c111" fill-opacity="1"><g transform="translate(161.944001, 181.131077)"><g><path d="M 125.984375 -29.8125 L 129.453125 -29.8125 L 129.453125 0 C 128.296875 0.5 127.015625 0.953125 125.609375 1.359375 C 124.203125 1.773438 122.671875 1.984375 121.015625 1.984375 C 113.890625 1.984375 107.46875 0.410156 101.75 -2.734375 C 96.03125 -5.878906 91.351562 -10.019531 87.71875 -15.15625 C 84.070312 -9.851562 79.515625 -5.671875 74.046875 -2.609375 C 68.578125 0.453125 62.195312 1.984375 54.90625 1.984375 C 45.96875 1.984375 37.851562 -0.289062 30.5625 -4.84375 C 23.269531 -9.394531 17.46875 -15.601562 13.15625 -23.46875 C 8.851562 -31.34375 6.703125 -40.082031 6.703125 -49.6875 C 6.703125 -59.46875 8.851562 -68.25 13.15625 -76.03125 C 17.46875 -83.820312 23.269531 -89.992188 30.5625 -94.546875 C 37.851562 -99.097656 45.96875 -101.375 54.90625 -101.375 C 60.207031 -101.375 65.007812 -100.546875 69.3125 -98.890625 C 73.625 -97.234375 77.4375 -95 80.75 -92.1875 L 80.75 -99.390625 L 117.53125 -99.390625 L 117.53125 -38.515625 C 117.53125 -34.535156 118.441406 -32.085938 120.265625 -31.171875 C 122.085938 -30.265625 123.992188 -29.8125 125.984375 -29.8125 Z M 63.359375 -30.0625 C 67.335938 -30.0625 70.941406 -31.140625 74.171875 -33.296875 C 77.398438 -35.453125 79.757812 -38.269531 81.25 -41.75 L 82.25 -44.71875 C 82.738281 -46.21875 82.984375 -47.875 82.984375 -49.6875 C 82.984375 -55.320312 81.035156 -60.003906 77.140625 -63.734375 C 73.253906 -67.460938 68.660156 -69.328125 63.359375 -69.328125 C 57.722656 -69.328125 53 -67.460938 49.1875 -63.734375 C 45.382812 -60.003906 43.484375 -55.320312 43.484375 -49.6875 C 43.484375 -44.0625 45.382812 -39.382812 49.1875 -35.65625 C 53 -31.925781 57.722656 -30.0625 63.359375 -30.0625 Z M 63.359375 -30.0625 "/></g></g></g><g fill="#f9c111" fill-opacity="1"><g transform="translate(289.6655, 181.131077)"><g><path d="M 47.953125 1.984375 C 41.992188 1.984375 35.988281 1.070312 29.9375 -0.75 C 23.894531 -2.570312 18.550781 -5.257812 13.90625 -8.8125 C 9.269531 -12.375 5.878906 -16.890625 3.734375 -22.359375 L 29.5625 -35.78125 C 32.382812 -31.46875 35.242188 -28.773438 38.140625 -27.703125 C 41.035156 -26.628906 43.394531 -26.09375 45.21875 -26.09375 C 49.695312 -26.09375 51.9375 -27.414062 51.9375 -30.0625 C 51.9375 -31.226562 51.269531 -32.390625 49.9375 -33.546875 C 48.613281 -34.703125 45.882812 -36.023438 41.75 -37.515625 C 39.59375 -38.347656 36.734375 -39.46875 33.171875 -40.875 C 29.609375 -42.28125 26.003906 -44.097656 22.359375 -46.328125 C 18.710938 -48.566406 15.6875 -51.46875 13.28125 -55.03125 C 10.882812 -58.59375 9.6875 -63.023438 9.6875 -68.328125 C 9.6875 -73.960938 11.21875 -79.265625 14.28125 -84.234375 C 17.351562 -89.203125 21.828125 -93.300781 27.703125 -96.53125 C 33.585938 -99.757812 40.753906 -101.375 49.203125 -101.375 C 56.328125 -101.375 62.828125 -100.253906 68.703125 -98.015625 C 74.585938 -95.785156 79.679688 -92.847656 83.984375 -89.203125 L 67.828125 -68.078125 C 66.171875 -69.734375 63.9375 -71.304688 61.125 -72.796875 C 58.3125 -74.296875 55.25 -75.046875 51.9375 -75.046875 C 49.613281 -75.046875 47.992188 -74.628906 47.078125 -73.796875 C 46.171875 -72.972656 45.71875 -72.144531 45.71875 -71.3125 C 45.71875 -70.15625 46.421875 -69.242188 47.828125 -68.578125 C 49.234375 -67.910156 51.265625 -67 53.921875 -65.84375 C 58.722656 -63.851562 63.566406 -61.53125 68.453125 -58.875 C 73.335938 -56.226562 77.4375 -52.710938 80.75 -48.328125 C 84.0625 -43.941406 85.71875 -38.269531 85.71875 -31.3125 C 85.71875 -21.863281 82.445312 -13.953125 75.90625 -7.578125 C 69.363281 -1.203125 60.046875 1.984375 47.953125 1.984375 Z M 47.953125 1.984375 "/></g></g></g><g fill="#f9c111" fill-opacity="1"><g transform="translate(373.156685, 181.131077)"><g><path d="M 80.5 -101.375 C 87.132812 -101.375 93.097656 -99.71875 98.390625 -96.40625 C 103.691406 -93.09375 107.914062 -88.535156 111.0625 -82.734375 C 114.21875 -76.941406 115.796875 -70.316406 115.796875 -62.859375 L 115.796875 0 L 79.015625 0 L 79.015625 -55.90625 C 79.015625 -59.550781 77.8125 -62.695312 75.40625 -65.34375 C 73.007812 -68 69.820312 -69.328125 65.84375 -69.328125 C 61.375 -69.328125 57.6875 -67.671875 54.78125 -64.359375 C 51.882812 -61.046875 50.4375 -57.484375 50.4375 -53.671875 L 50.4375 0 L 13.671875 0 L 13.671875 -166.234375 L 50.4375 -166.234375 L 50.4375 -84.984375 C 54.082031 -90.117188 58.472656 -94.132812 63.609375 -97.03125 C 68.742188 -99.925781 74.375 -101.375 80.5 -101.375 Z M 80.5 -101.375 "/></g></g></g><g fill="#f9c111" fill-opacity="1"><g transform="translate(494.169158, 181.131077)"><g><path d="M 63.359375 1.984375 C 51.765625 1.984375 41.703125 -0.25 33.171875 -4.71875 C 24.640625 -9.195312 18.09375 -15.328125 13.53125 -23.109375 C 8.976562 -30.890625 6.703125 -39.75 6.703125 -49.6875 C 6.703125 -59.800781 8.976562 -68.707031 13.53125 -76.40625 C 18.09375 -84.101562 24.640625 -90.1875 33.171875 -94.65625 C 41.703125 -99.132812 51.765625 -101.375 63.359375 -101.375 C 79.265625 -101.375 92.144531 -97.273438 102 -89.078125 C 111.851562 -80.878906 117.609375 -70.238281 119.265625 -57.15625 L 81.75 -57.15625 C 80.425781 -60.789062 78.109375 -63.6875 74.796875 -65.84375 C 71.484375 -68 67.671875 -69.160156 63.359375 -69.328125 C 57.566406 -69.160156 52.804688 -67.253906 49.078125 -63.609375 C 45.347656 -59.960938 43.484375 -55.320312 43.484375 -49.6875 C 43.484375 -44.0625 45.347656 -39.425781 49.078125 -35.78125 C 52.804688 -32.132812 57.566406 -30.226562 63.359375 -30.0625 C 67.671875 -30.226562 71.484375 -31.390625 74.796875 -33.546875 C 78.109375 -35.703125 80.425781 -38.597656 81.75 -42.234375 L 119.265625 -42.234375 C 117.609375 -29.148438 111.851562 -18.507812 102 -10.3125 C 92.144531 -2.113281 79.265625 1.984375 63.359375 1.984375 Z M 63.359375 1.984375 "/></g></g></g><g fill="#f9c111" fill-opacity="1"><g transform="translate(613.193698, 181.131077)"><g><path d="M 125.984375 -29.8125 L 129.453125 -29.8125 L 129.453125 0 C 128.296875 0.5 127.015625 0.953125 125.609375 1.359375 C 124.203125 1.773438 122.671875 1.984375 121.015625 1.984375 C 113.890625 1.984375 107.46875 0.410156 101.75 -2.734375 C 96.03125 -5.878906 91.351562 -10.019531 87.71875 -15.15625 C 84.070312 -9.851562 79.515625 -5.671875 74.046875 -2.609375 C 68.578125 0.453125 62.195312 1.984375 54.90625 1.984375 C 45.96875 1.984375 37.851562 -0.289062 30.5625 -4.84375 C 23.269531 -9.394531 17.46875 -15.601562 13.15625 -23.46875 C 8.851562 -31.34375 6.703125 -40.082031 6.703125 -49.6875 C 6.703125 -59.46875 8.851562 -68.25 13.15625 -76.03125 C 17.46875 -83.820312 23.269531 -89.992188 30.5625 -94.546875 C 37.851562 -99.097656 45.96875 -101.375 54.90625 -101.375 C 60.207031 -101.375 65.007812 -100.546875 69.3125 -98.890625 C 73.625 -97.234375 77.4375 -95 80.75 -92.1875 L 80.75 -99.390625 L 117.53125 -99.390625 L 117.53125 -38.515625 C 117.53125 -34.535156 118.441406 -32.085938 120.265625 -31.171875 C 122.085938 -30.265625 123.992188 -29.8125 125.984375 -29.8125 Z M 63.359375 -30.0625 C 67.335938 -30.0625 70.941406 -31.140625 74.171875 -33.296875 C 77.398438 -35.453125 79.757812 -38.269531 81.25 -41.75 L 82.25 -44.71875 C 82.738281 -46.21875 82.984375 -47.875 82.984375 -49.6875 C 82.984375 -55.320312 81.035156 -60.003906 77.140625 -63.734375 C 73.253906 -67.460938 68.660156 -69.328125 63.359375 -69.328125 C 57.722656 -69.328125 53 -67.460938 49.1875 -63.734375 C 45.382812 -60.003906 43.484375 -55.320312 43.484375 -49.6875 C 43.484375 -44.0625 45.382812 -39.382812 49.1875 -35.65625 C 53 -31.925781 57.722656 -30.0625 63.359375 -30.0625 Z M 63.359375 -30.0625 "/></g></g></g><g fill="#f9c111" fill-opacity="1"><g transform="translate(740.915197, 181.131077)"><g><path d="M 76.78125 -101.375 C 79.925781 -101.375 82.742188 -100.960938 85.234375 -100.140625 L 85.234375 -68.328125 C 84.066406 -68.660156 82.613281 -68.910156 80.875 -69.078125 C 79.132812 -69.242188 77.269531 -69.328125 75.28125 -69.328125 C 68 -69.328125 62.035156 -67.335938 57.390625 -63.359375 C 52.753906 -59.378906 50.4375 -53.5 50.4375 -45.71875 L 50.4375 0 L 13.671875 0 L 13.671875 -99.390625 L 50.4375 -99.390625 L 50.4375 -85.46875 C 53.582031 -90.445312 57.390625 -94.34375 61.859375 -97.15625 C 66.335938 -99.96875 71.3125 -101.375 76.78125 -101.375 Z M 76.78125 -101.375 "/></g></g></g><g fill="#f9c111" fill-opacity="1"><g transform="translate(818.939668, 181.131077)"><g><path d="M 80.75 -165.984375 L 117.53125 -166.234375 L 117.53125 0 L 80.75 0.25 L 80.75 -7.203125 C 77.4375 -4.390625 73.625 -2.15625 69.3125 -0.5 C 65.007812 1.15625 60.207031 1.984375 54.90625 1.984375 C 45.96875 1.984375 37.851562 -0.289062 30.5625 -4.84375 C 23.269531 -9.394531 17.46875 -15.601562 13.15625 -23.46875 C 8.851562 -31.34375 6.703125 -40.082031 6.703125 -49.6875 C 6.703125 -59.46875 8.851562 -68.25 13.15625 -76.03125 C 17.46875 -83.820312 23.269531 -89.992188 30.5625 -94.546875 C 37.851562 -99.097656 45.96875 -101.375 54.90625 -101.375 C 60.207031 -101.375 65.007812 -100.546875 69.3125 -98.890625 C 73.625 -97.234375 77.4375 -95 80.75 -92.1875 Z M 63.359375 -30.0625 C 68.660156 -30.0625 73.253906 -31.925781 77.140625 -35.65625 C 81.035156 -39.382812 82.984375 -44.0625 82.984375 -49.6875 C 82.984375 -55.320312 81.035156 -60.003906 77.140625 -63.734375 C 73.253906 -67.460938 68.660156 -69.328125 63.359375 -69.328125 C 57.722656 -69.328125 53 -67.460938 49.1875 -63.734375 C 45.382812 -60.003906 43.484375 -55.320312 43.484375 -49.6875 C 43.484375 -44.0625 45.382812 -39.382812 49.1875 -35.65625 C 53 -31.925781 57.722656 -30.0625 63.359375 -30.0625 Z M 63.359375 -30.0625 "/></g></g></g><g fill="#f9c111" fill-opacity="1"><g transform="translate(944.424796, 181.131077)"><g><path d="M 47.953125 1.984375 C 41.992188 1.984375 35.988281 1.070312 29.9375 -0.75 C 23.894531 -2.570312 18.550781 -5.257812 13.90625 -8.8125 C 9.269531 -12.375 5.878906 -16.890625 3.734375 -22.359375 L 29.5625 -35.78125 C 32.382812 -31.46875 35.242188 -28.773438 38.140625 -27.703125 C 41.035156 -26.628906 43.394531 -26.09375 45.21875 -26.09375 C 49.695312 -26.09375 51.9375 -27.414062 51.9375 -30.0625 C 51.9375 -31.226562 51.269531 -32.390625 49.9375 -33.546875 C 48.613281 -34.703125 45.882812 -36.023438 41.75 -37.515625 C 39.59375 -38.347656 36.734375 -39.46875 33.171875 -40.875 C 29.609375 -42.28125 26.003906 -44.097656 22.359375 -46.328125 C 18.710938 -48.566406 15.6875 -51.46875 13.28125 -55.03125 C 10.882812 -58.59375 9.6875 -63.023438 9.6875 -68.328125 C 9.6875 -73.960938 11.21875 -79.265625 14.28125 -84.234375 C 17.351562 -89.203125 21.828125 -93.300781 27.703125 -96.53125 C 33.585938 -99.757812 40.753906 -101.375 49.203125 -101.375 C 56.328125 -101.375 62.828125 -100.253906 68.703125 -98.015625 C 74.585938 -95.785156 79.679688 -92.847656 83.984375 -89.203125 L 67.828125 -68.078125 C 66.171875 -69.734375 63.9375 -71.304688 61.125 -72.796875 C 58.3125 -74.296875 55.25 -75.046875 51.9375 -75.046875 C 49.613281 -75.046875 47.992188 -74.628906 47.078125 -73.796875 C 46.171875 -72.972656 45.71875 -72.144531 45.71875 -71.3125 C 45.71875 -70.15625 46.421875 -69.242188 47.828125 -68.578125 C 49.234375 -67.910156 51.265625 -67 53.921875 -65.84375 C 58.722656 -63.851562 63.566406 -61.53125 68.453125 -58.875 C 73.335938 -56.226562 77.4375 -52.710938 80.75 -48.328125 C 84.0625 -43.941406 85.71875 -38.269531 85.71875 -31.3125 C 85.71875 -21.863281 82.445312 -13.953125 75.90625 -7.578125 C 69.363281 -1.203125 60.046875 1.984375 47.953125 1.984375 Z M 47.953125 1.984375 "/></g></g></g></g></g></svg>